<?xml version="1.0" standalone="no"?>
<!DOCTYPE svg PUBLIC "-//W3C//DTD SVG 20010904//EN"
 "http://www.w3.org/TR/2001/REC-SVG-20010904/DTD/svg10.dtd">
<svg version="1.0" xmlns="http://www.w3.org/2000/svg"
 width="700.000000pt" height="700.000000pt" viewBox="0 0 700.000000 700.000000"
 preserveAspectRatio="xMidYMid meet">
<metadata>
Created by potrace 1.11, written by Peter Selinger 2001-2013
</metadata>
<g transform="translate(0.000000,700.000000) scale(0.100000,-0.100000)"
fill="#000000" stroke="none">
<path d="M3278 6995 c-1 -1 -41 -6 -87 -9 -519 -41 -1070 -226 -1526 -511
-106 -66 -289 -195 -350 -246 -250 -209 -460 -427 -611 -634 -16 -22 -32 -42
-35 -45 -10 -8 -142 -209 -184 -280 -107 -183 -210 -400 -281 -598 -34 -94
-100 -312 -109 -361 -3 -14 -7 -36 -10 -48 -12 -54 -15 -71 -26 -128 -5 -33
-12 -71 -15 -85 -3 -14 -7 -45 -10 -70 -3 -25 -7 -56 -9 -70 -26 -149 -26
-680 -1 -817 2 -10 7 -45 10 -78 4 -33 9 -67 11 -75 3 -8 7 -31 9 -50 5 -39
37 -186 59 -270 138 -526 415 -1041 782 -1449 240 -267 548 -518 855 -698 104
-61 392 -203 412 -203 8 0 18 -4 23 -8 24 -21 360 -134 465 -156 14 -3 43 -10
65 -15 89 -21 243 -50 295 -56 30 -4 66 -9 80 -11 183 -27 649 -25 840 2 484
70 903 209 1274 423 49 28 90 51 92 51 3 0 158 104 269 180 165 114 398 331
600 561 105 119 292 384 367 519 89 161 112 207 158 310 51 113 154 383 164
431 3 13 19 76 36 139 17 63 32 124 34 135 62 337 71 421 71 720 0 191 -11
409 -20 425 -2 3 -6 32 -10 64 -3 33 -8 62 -9 65 -2 3 -7 29 -10 56 -4 28 -12
70 -17 95 -6 25 -13 56 -15 70 -20 113 -132 457 -191 590 -63 141 -140 293
-190 380 -462 789 -1197 1368 -2056 1619 -122 36 -275 72 -352 85 -34 5 -118
19 -125 21 -3 1 -41 5 -85 10 -44 4 -89 10 -100 12 -25 4 -532 13 -537 8z
m462 -840 c47 -4 92 -8 100 -10 32 -6 101 -17 123 -20 133 -18 383 -90 555
-161 127 -53 353 -169 360 -186 2 -5 8 -8 14 -8 5 0 49 -27 96 -59 606 -416
1004 -1026 1136 -1741 36 -194 50 -465 33 -680 -48 -644 -346 -1268 -822
-1721 -86 -82 -117 -108 -230 -194 -363 -275 -785 -451 -1232 -515 -120 -17
-232 -24 -368 -24 -236 0 -394 19 -655 78 -193 44 -516 176 -685 279 -146 89
-354 239 -422 303 -219 208 -297 296 -420 469 -272 383 -432 820 -479 1305
-14 138 -8 431 10 565 65 463 220 854 489 1228 38 54 75 104 81 111 6 6 45 49
86 96 459 516 1096 834 1770 885 52 4 96 8 97 9 6 5 286 -2 363 -9z"/>
<path d="M3415 4515 c-78 -17 -145 -54 -201 -110 -165 -164 -165 -417 0 -580
224 -222 600 -118 682 190 77 288 -191 566 -481 500z"/>
<path d="M2620 3850 c-25 -4 -69 -10 -98 -14 -66 -8 -327 -51 -402 -66 -30 -6
-68 -14 -84 -17 -162 -28 -642 -166 -762 -219 -31 -13 -31 -14 -28 -86 4 -123
13 -228 29 -322 16 -90 61 -271 73 -292 5 -8 30 0 77 23 153 76 416 173 509
188 17 3 39 8 48 11 48 14 192 31 277 32 301 2 501 -109 636 -353 43 -78 94
-219 111 -305 3 -14 9 -41 14 -60 4 -19 12 -57 16 -85 4 -27 9 -57 10 -65 2
-8 6 -42 9 -75 4 -33 8 -71 10 -85 12 -79 23 -341 25 -592 l1 -186 84 -12
c128 -18 230 -25 340 -24 99 1 264 12 275 19 3 2 30 6 60 10 30 4 56 8 56 8 1
1 4 137 8 302 3 165 8 325 11 355 12 150 17 193 30 285 73 497 249 760 565
842 72 18 293 24 390 10 195 -29 453 -113 653 -213 37 -19 74 -34 81 -34 13 0
67 202 82 305 3 28 8 59 10 70 13 69 24 299 15 313 -5 8 -64 31 -211 82 -89
31 -419 122 -487 134 -15 3 -73 15 -127 26 -125 26 -275 53 -366 65 -25 3 -56
8 -70 10 -30 5 -84 12 -160 20 l-55 6 -23 -60 c-42 -110 -154 -257 -254 -334
-48 -38 -155 -97 -219 -121 -200 -75 -434 -64 -629 31 -82 40 -184 114 -243
177 -58 63 -132 177 -158 245 -26 68 -28 68 -129 51z"/>
</g>
</svg>
