<svg width="46" height="35" fill="none" xmlns="http://www.w3.org/2000/svg"><path d="M33.525 22.105c0 5.783-4.712 10.47-10.525 10.47s-10.525-4.687-10.525-10.47S17.187 11.635 23 11.635s10.525 4.687 10.525 10.47z" fill="#C4C4C4"/><path d="M20.674 23.465c-.652-1.405-.047-3.068 1.345-3.708 1.39-.64 3.048-.016 3.7 1.388l13.761 7.672-15.257-3.894c-1.358.523-2.92-.105-3.549-1.458z" fill="#030104"/><path d="M6.737 6.731A22.858 22.858 0 0123 0c6.144 0 11.92 2.39 16.264 6.731A22.824 22.824 0 0146 22.983c0 3.963-1 7.773-2.876 11.144h-4.299l-3.144-1.814 1.389-2.404 4.043 2.333a20.197 20.197 0 002.159-11.01l-4.82.85-.483-2.734 4.877-.86a20.32 20.32 0 00-5.55-9.96l-3.305 3.936-2.127-1.784 3.33-3.965A20.243 20.243 0 0024.388 2.7v5.263h-2.777V2.699a20.247 20.247 0 00-10.805 4.017l3.33 3.964-2.127 1.784L8.704 8.53a20.322 20.322 0 00-5.55 9.96l4.877.86-.482 2.732-4.82-.85a20.508 20.508 0 00-.077 1.751c0 3.333.807 6.481 2.235 9.26l4.043-2.333 1.389 2.404-3.144 1.813h-4.3A22.835 22.835 0 010 22.982c0-6.138 2.393-11.91 6.737-16.25z" fill="#030104"/></svg>